<svg width="1142" height="742" viewBox="0 0 1142 742" fill="none" xmlns="http://www.w3.org/2000/svg">
<g clip-path="url(#clip0_1_5)">
<rect width="1142" height="742" fill="white"/>
<g filter="url(#filter0_d_1_5)">
<rect width="1512" height="982" fill="#837FB1"/>
</g>
<g filter="url(#filter1_d_1_5)">
<rect x="231.5" y="250.5" width="699" height="359" rx="20.5" stroke="black" shape-rendering="crispEdges"/>
</g>
<g filter="url(#filter2_d_1_5)">
<rect x="211" y="231" width="700" height="359" rx="21" fill="#212931"/>
</g>
<path d="M468.726 403.516H475.619C477.033 403.516 478.247 403.727 479.263 404.15C480.287 404.574 481.074 405.2 481.624 406.029C482.174 406.859 482.449 407.879 482.449 409.089C482.449 410.079 482.28 410.93 481.941 411.641C481.611 412.343 481.142 412.931 480.532 413.405C479.931 413.871 479.225 414.243 478.412 414.522L477.206 415.157H471.214L471.188 412.187H475.645C476.313 412.187 476.868 412.068 477.308 411.831C477.748 411.594 478.078 411.264 478.298 410.841C478.526 410.418 478.641 409.927 478.641 409.368C478.641 408.776 478.531 408.264 478.311 407.832C478.09 407.4 477.756 407.07 477.308 406.842C476.859 406.613 476.296 406.499 475.619 406.499H472.534V422H468.726V403.516ZM479.06 422L474.845 413.761L478.869 413.735L483.135 421.822V422H479.06ZM492.567 418.902V412.783C492.567 412.343 492.495 411.966 492.352 411.653C492.208 411.332 491.983 411.082 491.679 410.904C491.382 410.727 490.997 410.638 490.523 410.638C490.117 410.638 489.766 410.71 489.47 410.854C489.174 410.989 488.945 411.188 488.784 411.45C488.623 411.704 488.543 412.005 488.543 412.352H484.887C484.887 411.768 485.022 411.213 485.293 410.688C485.564 410.164 485.957 409.702 486.474 409.305C486.99 408.898 487.604 408.581 488.314 408.353C489.034 408.124 489.838 408.01 490.727 408.01C491.793 408.01 492.741 408.188 493.57 408.543C494.4 408.898 495.051 409.432 495.525 410.143C496.008 410.854 496.249 411.742 496.249 412.809V418.687C496.249 419.44 496.296 420.058 496.389 420.54C496.482 421.014 496.617 421.429 496.795 421.784V422H493.101C492.923 421.628 492.787 421.162 492.694 420.604C492.61 420.036 492.567 419.469 492.567 418.902ZM493.05 413.634L493.075 415.703H491.031C490.549 415.703 490.13 415.758 489.774 415.868C489.419 415.978 489.127 416.135 488.898 416.338C488.67 416.533 488.501 416.761 488.391 417.023C488.289 417.286 488.238 417.574 488.238 417.887C488.238 418.2 488.31 418.483 488.454 418.737C488.598 418.983 488.805 419.177 489.076 419.321C489.347 419.457 489.664 419.524 490.028 419.524C490.578 419.524 491.057 419.414 491.463 419.194C491.869 418.974 492.182 418.703 492.402 418.382C492.631 418.06 492.749 417.756 492.758 417.468L493.723 419.017C493.587 419.364 493.401 419.723 493.164 420.096C492.936 420.468 492.644 420.819 492.288 421.149C491.933 421.471 491.505 421.738 491.006 421.949C490.507 422.152 489.914 422.254 489.229 422.254C488.357 422.254 487.565 422.08 486.854 421.733C486.152 421.378 485.593 420.891 485.179 420.273C484.772 419.647 484.569 418.936 484.569 418.141C484.569 417.421 484.705 416.782 484.976 416.224C485.246 415.665 485.644 415.195 486.169 414.814C486.702 414.425 487.367 414.133 488.162 413.938C488.958 413.735 489.88 413.634 490.93 413.634H493.05ZM502.647 411.196V422H498.991V408.264H502.419L502.647 411.196ZM502.114 414.649H501.124C501.124 413.634 501.255 412.72 501.518 411.907C501.78 411.086 502.148 410.388 502.622 409.812C503.096 409.229 503.659 408.784 504.311 408.479C504.971 408.166 505.707 408.01 506.52 408.01C507.163 408.01 507.751 408.103 508.284 408.289C508.817 408.475 509.274 408.771 509.655 409.178C510.045 409.584 510.341 410.121 510.544 410.79C510.756 411.459 510.861 412.275 510.861 413.24V422H507.18V413.228C507.18 412.618 507.095 412.144 506.926 411.806C506.757 411.467 506.507 411.23 506.177 411.095C505.855 410.951 505.457 410.879 504.983 410.879C504.493 410.879 504.065 410.976 503.701 411.171C503.346 411.366 503.049 411.636 502.812 411.983C502.584 412.322 502.41 412.72 502.292 413.177C502.174 413.634 502.114 414.125 502.114 414.649ZM521.754 419.004V402.5H525.436V422H522.122L521.754 419.004ZM513.07 415.297V415.03C513.07 413.981 513.189 413.029 513.426 412.174C513.663 411.311 514.01 410.57 514.467 409.952C514.924 409.334 515.487 408.856 516.155 408.518C516.824 408.179 517.586 408.01 518.44 408.01C519.244 408.01 519.947 408.179 520.548 408.518C521.157 408.856 521.674 409.339 522.097 409.965C522.528 410.583 522.875 411.315 523.138 412.161C523.4 412.999 523.59 413.917 523.709 414.916V415.5C523.59 416.456 523.4 417.345 523.138 418.166C522.875 418.987 522.528 419.706 522.097 420.324C521.674 420.934 521.157 421.408 520.548 421.746C519.938 422.085 519.228 422.254 518.415 422.254C517.56 422.254 516.799 422.08 516.13 421.733C515.47 421.386 514.911 420.9 514.454 420.273C514.006 419.647 513.663 418.911 513.426 418.064C513.189 417.218 513.07 416.296 513.07 415.297ZM516.727 415.03V415.297C516.727 415.864 516.769 416.393 516.854 416.884C516.947 417.375 517.095 417.811 517.298 418.191C517.509 418.564 517.78 418.856 518.11 419.067C518.449 419.271 518.859 419.372 519.342 419.372C519.968 419.372 520.484 419.232 520.891 418.953C521.297 418.665 521.606 418.272 521.817 417.772C522.037 417.273 522.164 416.698 522.198 416.046V414.383C522.173 413.85 522.097 413.371 521.97 412.948C521.851 412.517 521.674 412.148 521.437 411.844C521.208 411.539 520.92 411.302 520.573 411.133C520.235 410.964 519.833 410.879 519.367 410.879C518.893 410.879 518.487 410.989 518.148 411.209C517.81 411.421 517.535 411.713 517.323 412.085C517.12 412.457 516.968 412.897 516.866 413.405C516.773 413.905 516.727 414.446 516.727 415.03ZM527.708 415.271V415.005C527.708 413.998 527.852 413.071 528.14 412.225C528.427 411.37 528.846 410.629 529.396 410.003C529.947 409.377 530.624 408.89 531.428 408.543C532.232 408.188 533.154 408.01 534.195 408.01C535.236 408.01 536.163 408.188 536.976 408.543C537.788 408.89 538.469 409.377 539.02 410.003C539.578 410.629 540.001 411.37 540.289 412.225C540.577 413.071 540.721 413.998 540.721 415.005V415.271C540.721 416.27 540.577 417.197 540.289 418.052C540.001 418.898 539.578 419.639 539.02 420.273C538.469 420.9 537.792 421.386 536.988 421.733C536.184 422.08 535.262 422.254 534.221 422.254C533.18 422.254 532.253 422.08 531.44 421.733C530.636 421.386 529.955 420.9 529.396 420.273C528.846 419.639 528.427 418.898 528.14 418.052C527.852 417.197 527.708 416.27 527.708 415.271ZM531.364 415.005V415.271C531.364 415.847 531.415 416.384 531.517 416.884C531.618 417.383 531.779 417.823 531.999 418.204C532.228 418.576 532.524 418.868 532.888 419.08C533.252 419.292 533.696 419.397 534.221 419.397C534.729 419.397 535.164 419.292 535.528 419.08C535.892 418.868 536.184 418.576 536.404 418.204C536.624 417.823 536.785 417.383 536.887 416.884C536.997 416.384 537.052 415.847 537.052 415.271V415.005C537.052 414.446 536.997 413.922 536.887 413.431C536.785 412.931 536.62 412.491 536.392 412.11C536.172 411.721 535.88 411.416 535.516 411.196C535.152 410.976 534.712 410.866 534.195 410.866C533.679 410.866 533.239 410.976 532.875 411.196C532.52 411.416 532.228 411.721 531.999 412.11C531.779 412.491 531.618 412.931 531.517 413.431C531.415 413.922 531.364 414.446 531.364 415.005ZM546.624 411.107V422H542.955V408.264H546.396L546.624 411.107ZM546.116 414.649H545.101C545.101 413.693 545.215 412.813 545.443 412.009C545.68 411.196 546.023 410.494 546.472 409.901C546.929 409.3 547.492 408.835 548.16 408.505C548.829 408.175 549.603 408.01 550.483 408.01C551.093 408.01 551.651 408.103 552.159 408.289C552.667 408.467 553.103 408.75 553.467 409.14C553.839 409.521 554.127 410.02 554.33 410.638C554.533 411.247 554.635 411.979 554.635 412.834V422H550.979V413.24C550.979 412.614 550.894 412.132 550.725 411.793C550.555 411.454 550.314 411.217 550.001 411.082C549.696 410.947 549.328 410.879 548.896 410.879C548.423 410.879 548.008 410.976 547.652 411.171C547.305 411.366 547.018 411.636 546.789 411.983C546.561 412.322 546.391 412.72 546.281 413.177C546.171 413.634 546.116 414.125 546.116 414.649ZM554.292 414.23L552.984 414.396C552.984 413.498 553.094 412.665 553.314 411.895C553.543 411.124 553.877 410.447 554.317 409.863C554.766 409.279 555.32 408.826 555.98 408.505C556.641 408.175 557.402 408.01 558.266 408.01C558.926 408.01 559.527 408.107 560.068 408.302C560.61 408.488 561.071 408.788 561.452 409.203C561.841 409.609 562.138 410.143 562.341 410.803C562.552 411.463 562.658 412.271 562.658 413.228V422H558.989V413.228C558.989 412.593 558.905 412.11 558.735 411.78C558.575 411.442 558.338 411.209 558.024 411.082C557.72 410.947 557.356 410.879 556.933 410.879C556.493 410.879 556.107 410.968 555.777 411.146C555.447 411.315 555.172 411.552 554.952 411.856C554.732 412.161 554.567 412.517 554.457 412.923C554.347 413.321 554.292 413.757 554.292 414.23ZM582.234 419.258L587.236 423.219L584.837 425.301L579.911 421.34L582.234 419.258ZM587.363 412.326V413.202C587.363 414.607 587.173 415.868 586.792 416.985C586.42 418.103 585.882 419.055 585.18 419.842C584.477 420.62 583.648 421.217 582.691 421.632C581.735 422.047 580.673 422.254 579.505 422.254C578.345 422.254 577.283 422.047 576.318 421.632C575.354 421.217 574.52 420.62 573.817 419.842C573.115 419.055 572.569 418.103 572.18 416.985C571.799 415.868 571.608 414.607 571.608 413.202V412.326C571.608 410.913 571.799 409.652 572.18 408.543C572.569 407.426 573.111 406.474 573.805 405.687C574.499 404.899 575.328 404.299 576.293 403.884C577.258 403.469 578.32 403.262 579.479 403.262C580.647 403.262 581.71 403.469 582.666 403.884C583.631 404.299 584.465 404.899 585.167 405.687C585.869 406.474 586.411 407.426 586.792 408.543C587.173 409.652 587.363 410.913 587.363 412.326ZM583.517 413.202V412.301C583.517 411.319 583.424 410.456 583.237 409.711C583.06 408.966 582.797 408.34 582.45 407.832C582.112 407.324 581.693 406.943 581.193 406.689C580.694 406.427 580.123 406.296 579.479 406.296C578.836 406.296 578.265 406.427 577.766 406.689C577.266 406.943 576.847 407.324 576.509 407.832C576.17 408.34 575.912 408.966 575.734 409.711C575.557 410.456 575.468 411.319 575.468 412.301V413.202C575.468 414.175 575.557 415.039 575.734 415.792C575.912 416.537 576.17 417.167 576.509 417.684C576.856 418.191 577.279 418.576 577.778 418.839C578.286 419.101 578.862 419.232 579.505 419.232C580.148 419.232 580.715 419.101 581.206 418.839C581.705 418.576 582.124 418.191 582.463 417.684C582.81 417.167 583.072 416.537 583.25 415.792C583.428 415.039 583.517 414.175 583.517 413.202ZM598.015 418.712V408.264H601.671V422H598.23L598.015 418.712ZM598.421 415.894L599.5 415.868C599.5 416.782 599.394 417.633 599.183 418.42C598.971 419.199 598.654 419.876 598.23 420.451C597.807 421.018 597.274 421.463 596.631 421.784C595.988 422.097 595.23 422.254 594.358 422.254C593.69 422.254 593.072 422.161 592.505 421.975C591.946 421.78 591.464 421.479 591.058 421.073C590.66 420.659 590.347 420.13 590.118 419.486C589.898 418.835 589.788 418.052 589.788 417.138V408.264H593.444V417.163C593.444 417.569 593.491 417.912 593.584 418.191C593.686 418.471 593.825 418.699 594.003 418.877C594.181 419.055 594.388 419.182 594.625 419.258C594.87 419.334 595.141 419.372 595.438 419.372C596.191 419.372 596.783 419.22 597.215 418.915C597.655 418.61 597.964 418.196 598.142 417.671C598.328 417.138 598.421 416.545 598.421 415.894ZM603.88 415.271V415.005C603.88 413.998 604.024 413.071 604.312 412.225C604.599 411.37 605.018 410.629 605.568 410.003C606.118 409.377 606.796 408.89 607.6 408.543C608.404 408.188 609.326 408.01 610.367 408.01C611.408 408.01 612.335 408.188 613.147 408.543C613.96 408.89 614.641 409.377 615.191 410.003C615.75 410.629 616.173 411.37 616.461 412.225C616.749 413.071 616.893 413.998 616.893 415.005V415.271C616.893 416.27 616.749 417.197 616.461 418.052C616.173 418.898 615.75 419.639 615.191 420.273C614.641 420.9 613.964 421.386 613.16 421.733C612.356 422.08 611.434 422.254 610.393 422.254C609.352 422.254 608.425 422.08 607.612 421.733C606.808 421.386 606.127 420.9 605.568 420.273C605.018 419.639 604.599 418.898 604.312 418.052C604.024 417.197 603.88 416.27 603.88 415.271ZM607.536 415.005V415.271C607.536 415.847 607.587 416.384 607.688 416.884C607.79 417.383 607.951 417.823 608.171 418.204C608.399 418.576 608.696 418.868 609.06 419.08C609.424 419.292 609.868 419.397 610.393 419.397C610.9 419.397 611.336 419.292 611.7 419.08C612.064 418.868 612.356 418.576 612.576 418.204C612.796 417.823 612.957 417.383 613.059 416.884C613.169 416.384 613.224 415.847 613.224 415.271V415.005C613.224 414.446 613.169 413.922 613.059 413.431C612.957 412.931 612.792 412.491 612.563 412.11C612.343 411.721 612.051 411.416 611.688 411.196C611.324 410.976 610.883 410.866 610.367 410.866C609.851 410.866 609.411 410.976 609.047 411.196C608.691 411.416 608.399 411.721 608.171 412.11C607.951 412.491 607.79 412.931 607.688 413.431C607.587 413.922 607.536 414.446 607.536 415.005ZM625.868 408.264V410.854H617.87V408.264H625.868ZM619.851 404.874H623.507V417.861C623.507 418.259 623.558 418.564 623.659 418.775C623.769 418.987 623.93 419.135 624.142 419.22C624.353 419.296 624.62 419.334 624.941 419.334C625.17 419.334 625.373 419.326 625.551 419.309C625.737 419.283 625.894 419.258 626.021 419.232L626.033 421.924C625.72 422.025 625.382 422.106 625.018 422.165C624.654 422.224 624.252 422.254 623.812 422.254C623.007 422.254 622.305 422.123 621.704 421.86C621.112 421.59 620.655 421.158 620.333 420.565C620.011 419.973 619.851 419.194 619.851 418.229V404.874ZM634.272 422.254C633.206 422.254 632.25 422.085 631.403 421.746C630.557 421.399 629.838 420.921 629.245 420.312C628.661 419.702 628.213 418.995 627.899 418.191C627.586 417.379 627.43 416.516 627.43 415.602V415.094C627.43 414.053 627.578 413.101 627.874 412.237C628.17 411.374 628.593 410.625 629.144 409.99C629.702 409.355 630.379 408.869 631.175 408.53C631.97 408.183 632.868 408.01 633.866 408.01C634.84 408.01 635.703 408.171 636.456 408.492C637.209 408.814 637.84 409.271 638.348 409.863C638.864 410.456 639.253 411.167 639.516 411.996C639.778 412.817 639.909 413.731 639.909 414.738V416.262H628.991V413.824H636.316V413.545C636.316 413.037 636.223 412.584 636.037 412.187C635.859 411.78 635.589 411.459 635.225 411.222C634.861 410.985 634.395 410.866 633.828 410.866C633.346 410.866 632.931 410.972 632.584 411.184C632.237 411.395 631.953 411.691 631.733 412.072C631.522 412.453 631.361 412.902 631.251 413.418C631.149 413.926 631.099 414.484 631.099 415.094V415.602C631.099 416.152 631.175 416.66 631.327 417.125C631.488 417.59 631.712 417.993 632 418.331C632.296 418.67 632.652 418.932 633.066 419.118C633.49 419.304 633.968 419.397 634.501 419.397C635.161 419.397 635.775 419.271 636.342 419.017C636.917 418.754 637.412 418.361 637.827 417.836L639.604 419.766C639.317 420.18 638.923 420.578 638.424 420.959C637.933 421.34 637.34 421.653 636.646 421.898C635.952 422.135 635.161 422.254 634.272 422.254ZM649.418 418.204C649.418 417.942 649.342 417.705 649.189 417.493C649.037 417.282 648.754 417.087 648.339 416.909C647.933 416.723 647.344 416.554 646.574 416.401C645.88 416.249 645.233 416.059 644.632 415.83C644.039 415.593 643.523 415.31 643.083 414.979C642.651 414.649 642.313 414.26 642.067 413.812C641.822 413.354 641.699 412.834 641.699 412.25C641.699 411.674 641.822 411.133 642.067 410.625C642.321 410.117 642.681 409.669 643.146 409.279C643.62 408.882 644.196 408.573 644.873 408.353C645.559 408.124 646.329 408.01 647.184 408.01C648.377 408.01 649.401 408.2 650.256 408.581C651.119 408.962 651.779 409.487 652.236 410.155C652.702 410.815 652.935 411.569 652.935 412.415H649.278C649.278 412.06 649.202 411.742 649.05 411.463C648.906 411.175 648.677 410.951 648.364 410.79C648.06 410.621 647.662 410.536 647.171 410.536C646.765 410.536 646.413 410.608 646.117 410.752C645.821 410.887 645.592 411.074 645.432 411.311C645.279 411.539 645.203 411.793 645.203 412.072C645.203 412.284 645.245 412.474 645.33 412.644C645.423 412.804 645.571 412.952 645.774 413.088C645.978 413.223 646.24 413.35 646.562 413.469C646.892 413.579 647.298 413.68 647.78 413.773C648.771 413.977 649.655 414.243 650.434 414.573C651.212 414.895 651.83 415.335 652.287 415.894C652.744 416.444 652.973 417.167 652.973 418.064C652.973 418.674 652.837 419.232 652.566 419.74C652.296 420.248 651.906 420.692 651.398 421.073C650.891 421.446 650.281 421.738 649.57 421.949C648.868 422.152 648.076 422.254 647.196 422.254C645.918 422.254 644.835 422.025 643.946 421.568C643.066 421.111 642.397 420.532 641.94 419.829C641.492 419.118 641.268 418.39 641.268 417.646H644.733C644.75 418.145 644.877 418.547 645.114 418.852C645.36 419.156 645.669 419.376 646.041 419.512C646.422 419.647 646.832 419.715 647.272 419.715C647.746 419.715 648.14 419.651 648.453 419.524C648.766 419.389 649.003 419.211 649.164 418.991C649.333 418.763 649.418 418.5 649.418 418.204Z" fill="white"/>
<path d="M275.281 148.875H286.578C289.141 148.875 291.305 149.266 293.07 150.047C294.852 150.828 296.203 151.984 297.125 153.516C298.062 155.031 298.531 156.898 298.531 159.117C298.531 160.68 298.211 162.109 297.57 163.406C296.945 164.688 296.039 165.781 294.852 166.688C293.68 167.578 292.273 168.242 290.633 168.68L289.367 169.172H278.75L278.703 165.492H286.719C288.344 165.492 289.695 165.211 290.773 164.648C291.852 164.07 292.664 163.297 293.211 162.328C293.758 161.359 294.031 160.289 294.031 159.117C294.031 157.805 293.773 156.656 293.258 155.672C292.742 154.688 291.93 153.93 290.82 153.398C289.727 152.852 288.312 152.578 286.578 152.578H279.805V183H275.281V148.875ZM295.227 183L286.93 167.531L291.641 167.508L300.055 182.719V183H295.227ZM333.556 178.664V165.609C333.556 164.609 333.353 163.742 332.947 163.008C332.556 162.258 331.963 161.68 331.166 161.273C330.369 160.867 329.384 160.664 328.213 160.664C327.119 160.664 326.158 160.852 325.33 161.227C324.517 161.602 323.877 162.094 323.408 162.703C322.955 163.312 322.728 163.969 322.728 164.672H318.392C318.392 163.766 318.627 162.867 319.095 161.977C319.564 161.086 320.236 160.281 321.111 159.562C322.002 158.828 323.064 158.25 324.298 157.828C325.548 157.391 326.939 157.172 328.47 157.172C330.314 157.172 331.939 157.484 333.345 158.109C334.767 158.734 335.877 159.68 336.673 160.945C337.486 162.195 337.892 163.766 337.892 165.656V177.469C337.892 178.312 337.963 179.211 338.103 180.164C338.259 181.117 338.486 181.938 338.783 182.625V183H334.259C334.041 182.5 333.869 181.836 333.744 181.008C333.619 180.164 333.556 179.383 333.556 178.664ZM334.306 167.625L334.353 170.672H329.97C328.736 170.672 327.634 170.773 326.666 170.977C325.697 171.164 324.884 171.453 324.228 171.844C323.572 172.234 323.072 172.727 322.728 173.32C322.384 173.898 322.213 174.578 322.213 175.359C322.213 176.156 322.392 176.883 322.752 177.539C323.111 178.195 323.65 178.719 324.369 179.109C325.103 179.484 326.002 179.672 327.064 179.672C328.392 179.672 329.564 179.391 330.58 178.828C331.595 178.266 332.4 177.578 332.994 176.766C333.603 175.953 333.931 175.164 333.978 174.398L335.83 176.484C335.72 177.141 335.423 177.867 334.939 178.664C334.455 179.461 333.806 180.227 332.994 180.961C332.197 181.68 331.244 182.281 330.134 182.766C329.041 183.234 327.806 183.469 326.431 183.469C324.713 183.469 323.205 183.133 321.908 182.461C320.627 181.789 319.627 180.891 318.908 179.766C318.205 178.625 317.853 177.352 317.853 175.945C317.853 174.586 318.119 173.391 318.65 172.359C319.181 171.312 319.947 170.445 320.947 169.758C321.947 169.055 323.15 168.523 324.556 168.164C325.963 167.805 327.533 167.625 329.267 167.625H334.306ZM363.448 163.055V183H359.113V157.641H363.214L363.448 163.055ZM362.417 169.359L360.613 169.289C360.628 167.555 360.886 165.953 361.386 164.484C361.886 163 362.589 161.711 363.495 160.617C364.402 159.523 365.48 158.68 366.73 158.086C367.995 157.477 369.394 157.172 370.925 157.172C372.175 157.172 373.3 157.344 374.3 157.688C375.3 158.016 376.152 158.547 376.855 159.281C377.573 160.016 378.12 160.969 378.495 162.141C378.87 163.297 379.058 164.711 379.058 166.383V183H374.698V166.336C374.698 165.008 374.503 163.945 374.113 163.148C373.722 162.336 373.152 161.75 372.402 161.391C371.652 161.016 370.73 160.828 369.636 160.828C368.558 160.828 367.573 161.055 366.683 161.508C365.808 161.961 365.05 162.586 364.409 163.383C363.784 164.18 363.292 165.094 362.933 166.125C362.589 167.141 362.417 168.219 362.417 169.359ZM416.028 178.078V147H420.387V183H416.403L416.028 178.078ZM398.966 170.602V170.109C398.966 168.172 399.2 166.414 399.669 164.836C400.153 163.242 400.833 161.875 401.708 160.734C402.598 159.594 403.653 158.719 404.872 158.109C406.106 157.484 407.481 157.172 408.997 157.172C410.591 157.172 411.981 157.453 413.169 158.016C414.372 158.562 415.387 159.367 416.216 160.43C417.059 161.477 417.723 162.742 418.208 164.227C418.692 165.711 419.028 167.391 419.216 169.266V171.422C419.044 173.281 418.708 174.953 418.208 176.438C417.723 177.922 417.059 179.188 416.216 180.234C415.387 181.281 414.372 182.086 413.169 182.648C411.966 183.195 410.559 183.469 408.95 183.469C407.466 183.469 406.106 183.148 404.872 182.508C403.653 181.867 402.598 180.969 401.708 179.812C400.833 178.656 400.153 177.297 399.669 175.734C399.2 174.156 398.966 172.445 398.966 170.602ZM403.325 170.109V170.602C403.325 171.867 403.45 173.055 403.7 174.164C403.966 175.273 404.372 176.25 404.919 177.094C405.466 177.938 406.161 178.602 407.005 179.086C407.848 179.555 408.856 179.789 410.028 179.789C411.466 179.789 412.645 179.484 413.567 178.875C414.505 178.266 415.255 177.461 415.817 176.461C416.38 175.461 416.817 174.375 417.13 173.203V167.555C416.942 166.695 416.669 165.867 416.309 165.07C415.966 164.258 415.512 163.539 414.95 162.914C414.403 162.273 413.723 161.766 412.911 161.391C412.114 161.016 411.169 160.828 410.075 160.828C408.887 160.828 407.864 161.078 407.005 161.578C406.161 162.062 405.466 162.734 404.919 163.594C404.372 164.438 403.966 165.422 403.7 166.547C403.45 167.656 403.325 168.844 403.325 170.109ZM440.389 170.602V170.062C440.389 168.234 440.655 166.539 441.186 164.977C441.717 163.398 442.483 162.031 443.483 160.875C444.483 159.703 445.694 158.797 447.116 158.156C448.538 157.5 450.131 157.172 451.897 157.172C453.678 157.172 455.28 157.5 456.702 158.156C458.139 158.797 459.358 159.703 460.358 160.875C461.373 162.031 462.147 163.398 462.678 164.977C463.209 166.539 463.475 168.234 463.475 170.062V170.602C463.475 172.43 463.209 174.125 462.678 175.688C462.147 177.25 461.373 178.617 460.358 179.789C459.358 180.945 458.147 181.852 456.725 182.508C455.319 183.148 453.725 183.469 451.944 183.469C450.163 183.469 448.561 183.148 447.139 182.508C445.717 181.852 444.498 180.945 443.483 179.789C442.483 178.617 441.717 177.25 441.186 175.688C440.655 174.125 440.389 172.43 440.389 170.602ZM444.725 170.062V170.602C444.725 171.867 444.873 173.062 445.17 174.188C445.467 175.297 445.913 176.281 446.506 177.141C447.116 178 447.873 178.68 448.78 179.18C449.686 179.664 450.741 179.906 451.944 179.906C453.131 179.906 454.17 179.664 455.061 179.18C455.967 178.68 456.717 178 457.311 177.141C457.905 176.281 458.35 175.297 458.647 174.188C458.959 173.062 459.116 171.867 459.116 170.602V170.062C459.116 168.812 458.959 167.633 458.647 166.523C458.35 165.398 457.897 164.406 457.288 163.547C456.694 162.672 455.944 161.984 455.038 161.484C454.147 160.984 453.1 160.734 451.897 160.734C450.709 160.734 449.663 160.984 448.756 161.484C447.866 161.984 447.116 162.672 446.506 163.547C445.913 164.406 445.467 165.398 445.17 166.523C444.873 167.633 444.725 168.812 444.725 170.062ZM487.625 162.68V183H483.266V157.641H487.391L487.625 162.68ZM486.734 169.359L484.719 169.289C484.734 167.555 484.961 165.953 485.398 164.484C485.836 163 486.484 161.711 487.344 160.617C488.203 159.523 489.273 158.68 490.555 158.086C491.836 157.477 493.32 157.172 495.008 157.172C496.195 157.172 497.289 157.344 498.289 157.688C499.289 158.016 500.156 158.539 500.891 159.258C501.625 159.977 502.195 160.898 502.602 162.023C503.008 163.148 503.211 164.508 503.211 166.102V183H498.875V166.312C498.875 164.984 498.648 163.922 498.195 163.125C497.758 162.328 497.133 161.75 496.32 161.391C495.508 161.016 494.555 160.828 493.461 160.828C492.18 160.828 491.109 161.055 490.25 161.508C489.391 161.961 488.703 162.586 488.188 163.383C487.672 164.18 487.297 165.094 487.062 166.125C486.844 167.141 486.734 168.219 486.734 169.359ZM503.164 166.969L500.258 167.859C500.273 166.469 500.5 165.133 500.938 163.852C501.391 162.57 502.039 161.43 502.883 160.43C503.742 159.43 504.797 158.641 506.047 158.062C507.297 157.469 508.727 157.172 510.336 157.172C511.695 157.172 512.898 157.352 513.945 157.711C515.008 158.07 515.898 158.625 516.617 159.375C517.352 160.109 517.906 161.055 518.281 162.211C518.656 163.367 518.844 164.742 518.844 166.336V183H514.484V166.289C514.484 164.867 514.258 163.766 513.805 162.984C513.367 162.188 512.742 161.633 511.93 161.32C511.133 160.992 510.18 160.828 509.07 160.828C508.117 160.828 507.273 160.992 506.539 161.32C505.805 161.648 505.188 162.102 504.688 162.68C504.188 163.242 503.805 163.891 503.539 164.625C503.289 165.359 503.164 166.141 503.164 166.969ZM584.277 179.086L592.948 185.953L589.902 188.766L581.37 181.992L584.277 179.086ZM592.831 164.859V167.016C592.831 169.578 592.511 171.875 591.87 173.906C591.23 175.938 590.308 177.664 589.105 179.086C587.902 180.508 586.456 181.594 584.769 182.344C583.097 183.094 581.222 183.469 579.144 183.469C577.128 183.469 575.277 183.094 573.589 182.344C571.917 181.594 570.464 180.508 569.23 179.086C568.011 177.664 567.066 175.938 566.394 173.906C565.722 171.875 565.386 169.578 565.386 167.016V164.859C565.386 162.297 565.714 160.008 566.37 157.992C567.042 155.961 567.987 154.234 569.206 152.812C570.425 151.375 571.87 150.281 573.542 149.531C575.23 148.781 577.081 148.406 579.097 148.406C581.175 148.406 583.058 148.781 584.745 149.531C586.433 150.281 587.878 151.375 589.081 152.812C590.284 154.234 591.206 155.961 591.847 157.992C592.503 160.008 592.831 162.297 592.831 164.859ZM588.355 167.016V164.812C588.355 162.781 588.144 160.984 587.722 159.422C587.316 157.859 586.714 156.547 585.917 155.484C585.12 154.422 584.152 153.617 583.011 153.07C581.87 152.523 580.566 152.25 579.097 152.25C577.706 152.25 576.441 152.523 575.3 153.07C574.175 153.617 573.206 154.422 572.394 155.484C571.581 156.547 570.956 157.859 570.519 159.422C570.081 160.984 569.862 162.781 569.862 164.812V167.016C569.862 169.062 570.081 170.875 570.519 172.453C570.956 174.016 571.581 175.336 572.394 176.414C573.222 177.477 574.206 178.281 575.347 178.828C576.487 179.375 577.753 179.648 579.144 179.648C580.612 179.648 581.917 179.375 583.058 178.828C584.198 178.281 585.159 177.477 585.941 176.414C586.737 175.336 587.339 174.016 587.745 172.453C588.152 170.875 588.355 169.062 588.355 167.016ZM629.075 177.141V157.641H633.434V183H629.286L629.075 177.141ZM629.895 171.797L631.7 171.75C631.7 173.438 631.52 175 631.161 176.438C630.817 177.859 630.255 179.094 629.473 180.141C628.692 181.188 627.669 182.008 626.403 182.602C625.138 183.18 623.598 183.469 621.786 183.469C620.552 183.469 619.419 183.289 618.388 182.93C617.372 182.57 616.497 182.016 615.763 181.266C615.028 180.516 614.458 179.539 614.052 178.336C613.661 177.133 613.466 175.688 613.466 174V157.641H617.802V174.047C617.802 175.188 617.927 176.133 618.177 176.883C618.442 177.617 618.794 178.203 619.231 178.641C619.684 179.062 620.184 179.359 620.731 179.531C621.294 179.703 621.872 179.789 622.466 179.789C624.309 179.789 625.77 179.438 626.848 178.734C627.927 178.016 628.7 177.055 629.169 175.852C629.653 174.633 629.895 173.281 629.895 171.797ZM653.295 170.602V170.062C653.295 168.234 653.561 166.539 654.092 164.977C654.623 163.398 655.389 162.031 656.389 160.875C657.389 159.703 658.6 158.797 660.022 158.156C661.444 157.5 663.038 157.172 664.803 157.172C666.584 157.172 668.186 157.5 669.608 158.156C671.045 158.797 672.264 159.703 673.264 160.875C674.28 162.031 675.053 163.398 675.584 164.977C676.116 166.539 676.381 168.234 676.381 170.062V170.602C676.381 172.43 676.116 174.125 675.584 175.688C675.053 177.25 674.28 178.617 673.264 179.789C672.264 180.945 671.053 181.852 669.631 182.508C668.225 183.148 666.631 183.469 664.85 183.469C663.069 183.469 661.467 183.148 660.045 182.508C658.623 181.852 657.405 180.945 656.389 179.789C655.389 178.617 654.623 177.25 654.092 175.688C653.561 174.125 653.295 172.43 653.295 170.602ZM657.631 170.062V170.602C657.631 171.867 657.78 173.062 658.077 174.188C658.373 175.297 658.819 176.281 659.413 177.141C660.022 178 660.78 178.68 661.686 179.18C662.592 179.664 663.647 179.906 664.85 179.906C666.038 179.906 667.077 179.664 667.967 179.18C668.873 178.68 669.623 178 670.217 177.141C670.811 176.281 671.256 175.297 671.553 174.188C671.866 173.062 672.022 171.867 672.022 170.602V170.062C672.022 168.812 671.866 167.633 671.553 166.523C671.256 165.398 670.803 164.406 670.194 163.547C669.6 162.672 668.85 161.984 667.944 161.484C667.053 160.984 666.006 160.734 664.803 160.734C663.616 160.734 662.569 160.984 661.663 161.484C660.772 161.984 660.022 162.672 659.413 163.547C658.819 164.406 658.373 165.398 658.077 166.523C657.78 167.633 657.631 168.812 657.631 170.062ZM706.836 157.641V160.969H693.125V157.641H706.836ZM697.766 151.477H702.102V176.719C702.102 177.578 702.234 178.227 702.5 178.664C702.766 179.102 703.109 179.391 703.531 179.531C703.953 179.672 704.406 179.742 704.891 179.742C705.25 179.742 705.625 179.711 706.016 179.648C706.422 179.57 706.727 179.508 706.93 179.461L706.953 183C706.609 183.109 706.156 183.211 705.594 183.305C705.047 183.414 704.383 183.469 703.602 183.469C702.539 183.469 701.562 183.258 700.672 182.836C699.781 182.414 699.07 181.711 698.539 180.727C698.023 179.727 697.766 178.383 697.766 176.695V151.477ZM736.845 183.469C735.08 183.469 733.478 183.172 732.041 182.578C730.619 181.969 729.392 181.117 728.361 180.023C727.345 178.93 726.564 177.633 726.017 176.133C725.47 174.633 725.197 172.992 725.197 171.211V170.227C725.197 168.164 725.502 166.328 726.111 164.719C726.72 163.094 727.548 161.719 728.595 160.594C729.642 159.469 730.83 158.617 732.158 158.039C733.486 157.461 734.861 157.172 736.283 157.172C738.095 157.172 739.658 157.484 740.97 158.109C742.298 158.734 743.384 159.609 744.228 160.734C745.072 161.844 745.697 163.156 746.103 164.672C746.509 166.172 746.712 167.812 746.712 169.594V171.539H727.775V168H742.377V167.672C742.314 166.547 742.08 165.453 741.673 164.391C741.283 163.328 740.658 162.453 739.798 161.766C738.939 161.078 737.767 160.734 736.283 160.734C735.298 160.734 734.392 160.945 733.564 161.367C732.736 161.773 732.025 162.383 731.431 163.195C730.837 164.008 730.377 165 730.048 166.172C729.72 167.344 729.556 168.695 729.556 170.227V171.211C729.556 172.414 729.72 173.547 730.048 174.609C730.392 175.656 730.884 176.578 731.525 177.375C732.181 178.172 732.97 178.797 733.892 179.25C734.83 179.703 735.892 179.93 737.08 179.93C738.611 179.93 739.908 179.617 740.97 178.992C742.033 178.367 742.962 177.531 743.759 176.484L746.384 178.57C745.837 179.398 745.142 180.188 744.298 180.938C743.455 181.688 742.416 182.297 741.181 182.766C739.962 183.234 738.517 183.469 736.845 183.469ZM780.941 176.273C780.941 175.648 780.8 175.07 780.519 174.539C780.253 173.992 779.698 173.5 778.855 173.062C778.027 172.609 776.777 172.219 775.105 171.891C773.698 171.594 772.425 171.242 771.284 170.836C770.159 170.43 769.198 169.938 768.402 169.359C767.62 168.781 767.019 168.102 766.597 167.32C766.175 166.539 765.964 165.625 765.964 164.578C765.964 163.578 766.183 162.633 766.62 161.742C767.073 160.852 767.706 160.062 768.519 159.375C769.347 158.688 770.339 158.148 771.495 157.758C772.652 157.367 773.941 157.172 775.362 157.172C777.394 157.172 779.128 157.531 780.566 158.25C782.003 158.969 783.105 159.93 783.87 161.133C784.636 162.32 785.019 163.641 785.019 165.094H780.683C780.683 164.391 780.472 163.711 780.05 163.055C779.644 162.383 779.042 161.828 778.245 161.391C777.464 160.953 776.503 160.734 775.362 160.734C774.159 160.734 773.183 160.922 772.433 161.297C771.698 161.656 771.159 162.117 770.816 162.68C770.487 163.242 770.323 163.836 770.323 164.461C770.323 164.93 770.402 165.352 770.558 165.727C770.73 166.086 771.027 166.422 771.448 166.734C771.87 167.031 772.464 167.312 773.23 167.578C773.995 167.844 774.972 168.109 776.159 168.375C778.237 168.844 779.948 169.406 781.292 170.062C782.636 170.719 783.636 171.523 784.292 172.477C784.948 173.43 785.277 174.586 785.277 175.945C785.277 177.055 785.042 178.07 784.573 178.992C784.12 179.914 783.456 180.711 782.581 181.383C781.722 182.039 780.691 182.555 779.487 182.93C778.3 183.289 776.964 183.469 775.48 183.469C773.245 183.469 771.355 183.07 769.808 182.273C768.261 181.477 767.089 180.445 766.292 179.18C765.495 177.914 765.097 176.578 765.097 175.172H769.456C769.519 176.359 769.862 177.305 770.487 178.008C771.112 178.695 771.878 179.188 772.784 179.484C773.691 179.766 774.589 179.906 775.48 179.906C776.667 179.906 777.659 179.75 778.456 179.438C779.269 179.125 779.886 178.695 780.308 178.148C780.73 177.602 780.941 176.977 780.941 176.273ZM830.952 160.008C830.952 159.273 831.178 158.656 831.631 158.156C832.1 157.641 832.772 157.383 833.647 157.383C834.522 157.383 835.186 157.641 835.639 158.156C836.108 158.656 836.342 159.273 836.342 160.008C836.342 160.727 836.108 161.336 835.639 161.836C835.186 162.336 834.522 162.586 833.647 162.586C832.772 162.586 832.1 162.336 831.631 161.836C831.178 161.336 830.952 160.727 830.952 160.008ZM835.897 177.844V181.336C835.897 182.758 835.537 184.258 834.819 185.836C834.1 187.43 833.092 188.758 831.795 189.82L829.334 188.109C829.834 187.422 830.256 186.719 830.6 186C830.944 185.297 831.202 184.562 831.373 183.797C831.561 183.047 831.655 182.25 831.655 181.406V177.844H835.897ZM866.234 169.125V169.359C866.234 172.781 865.852 175.875 865.086 178.641C864.32 181.406 863.344 183.82 862.156 185.883C860.969 187.961 859.719 189.68 858.406 191.039C857.094 192.414 855.883 193.406 854.773 194.016L853.859 191.391C854.781 190.688 855.711 189.703 856.648 188.438C857.586 187.188 858.453 185.641 859.25 183.797C860.047 181.969 860.688 179.859 861.172 177.469C861.656 175.062 861.898 172.375 861.898 169.406V169.078C861.898 166.109 861.641 163.43 861.125 161.039C860.609 158.633 859.938 156.516 859.109 154.688C858.297 152.859 857.422 151.32 856.484 150.07C855.562 148.805 854.688 147.828 853.859 147.141L854.773 144.492C855.883 145.102 857.094 146.094 858.406 147.469C859.719 148.828 860.969 150.547 862.156 152.625C863.344 154.703 864.32 157.125 865.086 159.891C865.852 162.641 866.234 165.719 866.234 169.125Z" fill="white"/>
<circle cx="240.5" cy="255.5" r="6.5" fill="#FF656E"/>
<circle cx="262.5" cy="255.5" r="6.5" fill="#FFCD4E"/>
<circle cx="284.5" cy="255.5" r="6.5" fill="#A0F184"/>
</g>
<defs>
<filter id="filter0_d_1_5" x="-24" y="-4" width="1546" height="1016" filterUnits="userSpaceOnUse" color-interpolation-filters="sRGB">
<feFlood flood-opacity="0" result="BackgroundImageFix"/>
<feColorMatrix in="SourceAlpha" type="matrix" values="0 0 0 0 0 0 0 0 0 0 0 0 0 0 0 0 0 0 127 0" result="hardAlpha"/>
<feOffset dx="-7" dy="13"/>
<feGaussianBlur stdDeviation="8.5"/>
<feComposite in2="hardAlpha" operator="out"/>
<feColorMatrix type="matrix" values="0 0 0 0 0 0 0 0 0 0 0 0 0 0 0 0 0 0 0.17 0"/>
<feBlend mode="normal" in2="BackgroundImageFix" result="effect1_dropShadow_1_5"/>
<feBlend mode="normal" in="SourceGraphic" in2="effect1_dropShadow_1_5" result="shape"/>
</filter>
<filter id="filter1_d_1_5" x="221" y="242" width="720" height="380" filterUnits="userSpaceOnUse" color-interpolation-filters="sRGB">
<feFlood flood-opacity="0" result="BackgroundImageFix"/>
<feColorMatrix in="SourceAlpha" type="matrix" values="0 0 0 0 0 0 0 0 0 0 0 0 0 0 0 0 0 0 127 0" result="hardAlpha"/>
<feOffset dy="2"/>
<feGaussianBlur stdDeviation="5"/>
<feComposite in2="hardAlpha" operator="out"/>
<feColorMatrix type="matrix" values="0 0 0 0 0 0 0 0 0 0 0 0 0 0 0 0 0 0 0.2 0"/>
<feBlend mode="normal" in2="BackgroundImageFix" result="effect1_dropShadow_1_5"/>
<feBlend mode="normal" in="SourceGraphic" in2="effect1_dropShadow_1_5" result="shape"/>
</filter>
<filter id="filter2_d_1_5" x="201" y="223" width="720" height="379" filterUnits="userSpaceOnUse" color-interpolation-filters="sRGB">
<feFlood flood-opacity="0" result="BackgroundImageFix"/>
<feColorMatrix in="SourceAlpha" type="matrix" values="0 0 0 0 0 0 0 0 0 0 0 0 0 0 0 0 0 0 127 0" result="hardAlpha"/>
<feOffset dy="2"/>
<feGaussianBlur stdDeviation="5"/>
<feComposite in2="hardAlpha" operator="out"/>
<feColorMatrix type="matrix" values="0 0 0 0 0 0 0 0 0 0 0 0 0 0 0 0 0 0 0.2 0"/>
<feBlend mode="normal" in2="BackgroundImageFix" result="effect1_dropShadow_1_5"/>
<feBlend mode="normal" in="SourceGraphic" in2="effect1_dropShadow_1_5" result="shape"/>
</filter>
<clipPath id="clip0_1_5">
<rect width="1142" height="742" fill="white"/>
</clipPath>
</defs>
</svg>
